# xmcd
#
# Track frame offsets:
#	150
#	14580
#	31472
#	46932
#	62752
#	74440
#	97135
#	116725
#	129902
#	140390
#	160247
#	179552
#	197030
#	218007
#	233417
#
# Disc length: 3350 seconds
#
# Revision: 1
# Processed by: cddbd v1.5PL3 Copyright (c) Steve Scherf et al.
# Submitted via: audiograbber 1.81.03
#
DISCID=d70d140f
DTITLE=King Rollo - When It's Gone It's Gone
DYEAR=2004
DGENRE=Blues
TTITLE0=A 'Need
TTITLE1=Basin Street Blues
TTITLE2=Rollo's Walking Blues
TTITLE3=SingThe Blues
TTITLE4=I Like It Like That
TTITLE5=D' You Know?
TTITLE6=Reunited With The Blues
TTITLE7=See See Rider
TTITLE8=Ain't Got No Worries
TTITLE9=Lonesome
TTITLE10=Diving Duck Blues
TTITLE11=The Tao Of Blues
TTITLE12=Walking The Dog
TTITLE13=Love Enough
TTITLE14=Autumn Blue
EXTD=
EXTT0=
EXTT1=
EXTT2=
EXTT3=
EXTT4=
EXTT5=
EXTT6=
EXTT7=
EXTT8=
EXTT9=
EXTT10=
EXTT11=
EXTT12=
EXTT13=
EXTT14=
PLAYORDER=
